<mxfile host="Electron" modified="2024-06-20T16:04:36.278Z" agent="Mozilla/5.0 (Windows NT 10.0; Win64; x64) AppleWebKit/537.36 (KHTML, like Gecko) draw.io/24.4.0 Chrome/120.0.6099.109 Electron/28.1.0 Safari/537.36" etag="RsWynB6D-rTFxOoKpR7X" version="24.4.0" type="device">
  <diagram name="Page-1" id="EfyMIQCj1DiEg8PKEKG0">
    <mxGraphModel dx="2352" dy="1817" grid="1" gridSize="10" guides="1" tooltips="1" connect="1" arrows="1" fold="1" page="1" pageScale="1" pageWidth="850" pageHeight="1100" math="0" shadow="0">
      <root>
        <mxCell id="0" />
        <mxCell id="1" parent="0" />
        <mxCell id="UxQPK8iq0NYNORmXwXlF-1" value="&lt;font style=&quot;font-size: 24px;&quot;&gt;Trainee&lt;/font&gt;" style="text;strokeColor=none;align=center;fillColor=none;html=1;verticalAlign=middle;whiteSpace=wrap;rounded=0;labelBackgroundColor=none;fontColor=#143642;" parent="1" vertex="1">
          <mxGeometry x="20" y="-1060" width="90" height="50" as="geometry" />
        </mxCell>
        <mxCell id="UxQPK8iq0NYNORmXwXlF-2" value="" style="rounded=0;whiteSpace=wrap;html=1;labelBackgroundColor=none;fillColor=#FAE5C7;strokeColor=#0F8B8D;fontColor=#143642;" parent="1" vertex="1">
          <mxGeometry x="30" y="-1010" width="500" height="60" as="geometry" />
        </mxCell>
        <mxCell id="UxQPK8iq0NYNORmXwXlF-3" value="" style="endArrow=none;html=1;rounded=0;hachureGap=4;strokeColor=#A8201A;fontFamily=Architects Daughter;fontSource=https%3A%2F%2Ffonts.googleapis.com%2Fcss%3Ffamily%3DArchitects%2BDaughter;fontColor=#143642;fillColor=#FAE5C7;" parent="1" edge="1">
          <mxGeometry width="50" height="50" relative="1" as="geometry">
            <mxPoint x="140" y="-950" as="sourcePoint" />
            <mxPoint x="140" y="-1010" as="targetPoint" />
          </mxGeometry>
        </mxCell>
        <mxCell id="UxQPK8iq0NYNORmXwXlF-4" value="&lt;font style=&quot;font-size: 18px;&quot;&gt;Trainee_id&lt;/font&gt;" style="text;strokeColor=none;align=center;fillColor=none;html=1;verticalAlign=middle;whiteSpace=wrap;rounded=0;fontFamily=Architects Daughter;fontSource=https%3A%2F%2Ffonts.googleapis.com%2Fcss%3Ffamily%3DArchitects%2BDaughter;fontColor=#143642;" parent="1" vertex="1">
          <mxGeometry x="50" y="-995" width="60" height="30" as="geometry" />
        </mxCell>
        <mxCell id="UxQPK8iq0NYNORmXwXlF-5" value="" style="endArrow=none;html=1;rounded=0;hachureGap=4;strokeColor=#A8201A;fontFamily=Architects Daughter;fontSource=https%3A%2F%2Ffonts.googleapis.com%2Fcss%3Ffamily%3DArchitects%2BDaughter;fontColor=#143642;fillColor=#FAE5C7;" parent="1" edge="1">
          <mxGeometry width="50" height="50" relative="1" as="geometry">
            <mxPoint x="40" y="-965" as="sourcePoint" />
            <mxPoint x="120" y="-965" as="targetPoint" />
          </mxGeometry>
        </mxCell>
        <mxCell id="UxQPK8iq0NYNORmXwXlF-6" value="" style="endArrow=none;html=1;rounded=0;hachureGap=4;strokeColor=#A8201A;fontFamily=Architects Daughter;fontSource=https%3A%2F%2Ffonts.googleapis.com%2Fcss%3Ffamily%3DArchitects%2BDaughter;fontColor=#143642;fillColor=#FAE5C7;exitX=0.179;exitY=1.047;exitDx=0;exitDy=0;exitPerimeter=0;" parent="1" edge="1">
          <mxGeometry width="50" height="50" relative="1" as="geometry">
            <mxPoint x="241" y="-948.5" as="sourcePoint" />
            <mxPoint x="240" y="-1011.5" as="targetPoint" />
          </mxGeometry>
        </mxCell>
        <mxCell id="UxQPK8iq0NYNORmXwXlF-7" value="" style="endArrow=none;html=1;rounded=0;hachureGap=4;strokeColor=#A8201A;fontFamily=Architects Daughter;fontSource=https%3A%2F%2Ffonts.googleapis.com%2Fcss%3Ffamily%3DArchitects%2BDaughter;fontColor=#143642;fillColor=#FAE5C7;exitX=0.179;exitY=1.047;exitDx=0;exitDy=0;exitPerimeter=0;" parent="1" edge="1">
          <mxGeometry width="50" height="50" relative="1" as="geometry">
            <mxPoint x="331" y="-950" as="sourcePoint" />
            <mxPoint x="330" y="-1013" as="targetPoint" />
          </mxGeometry>
        </mxCell>
        <mxCell id="UxQPK8iq0NYNORmXwXlF-8" value="&lt;font style=&quot;font-size: 18px;&quot;&gt;Fname&lt;/font&gt;" style="text;strokeColor=none;align=center;fillColor=none;html=1;verticalAlign=middle;whiteSpace=wrap;rounded=0;fontFamily=Architects Daughter;fontSource=https%3A%2F%2Ffonts.googleapis.com%2Fcss%3Ffamily%3DArchitects%2BDaughter;fontColor=#143642;" parent="1" vertex="1">
          <mxGeometry x="160" y="-995" width="60" height="30" as="geometry" />
        </mxCell>
        <mxCell id="UxQPK8iq0NYNORmXwXlF-9" value="&lt;font style=&quot;font-size: 18px;&quot;&gt;Lname&lt;/font&gt;" style="text;strokeColor=none;align=center;fillColor=none;html=1;verticalAlign=middle;whiteSpace=wrap;rounded=0;fontFamily=Architects Daughter;fontSource=https%3A%2F%2Ffonts.googleapis.com%2Fcss%3Ffamily%3DArchitects%2BDaughter;fontColor=#143642;" parent="1" vertex="1">
          <mxGeometry x="250" y="-995" width="60" height="30" as="geometry" />
        </mxCell>
        <mxCell id="UxQPK8iq0NYNORmXwXlF-10" value="" style="endArrow=none;html=1;rounded=0;hachureGap=4;strokeColor=#A8201A;fontFamily=Architects Daughter;fontSource=https%3A%2F%2Ffonts.googleapis.com%2Fcss%3Ffamily%3DArchitects%2BDaughter;fontColor=#143642;fillColor=#FAE5C7;exitX=0.179;exitY=1.047;exitDx=0;exitDy=0;exitPerimeter=0;" parent="1" edge="1">
          <mxGeometry width="50" height="50" relative="1" as="geometry">
            <mxPoint x="421" y="-950" as="sourcePoint" />
            <mxPoint x="420" y="-1013" as="targetPoint" />
          </mxGeometry>
        </mxCell>
        <mxCell id="UxQPK8iq0NYNORmXwXlF-11" value="&lt;font style=&quot;font-size: 18px;&quot;&gt;Age&lt;/font&gt;" style="text;strokeColor=none;align=center;fillColor=none;html=1;verticalAlign=middle;whiteSpace=wrap;rounded=0;fontFamily=Architects Daughter;fontSource=https%3A%2F%2Ffonts.googleapis.com%2Fcss%3Ffamily%3DArchitects%2BDaughter;fontColor=#143642;" parent="1" vertex="1">
          <mxGeometry x="350" y="-995" width="60" height="30" as="geometry" />
        </mxCell>
        <mxCell id="UxQPK8iq0NYNORmXwXlF-12" value="&lt;font style=&quot;font-size: 18px;&quot;&gt;Gender&lt;/font&gt;" style="text;strokeColor=none;align=center;fillColor=none;html=1;verticalAlign=middle;whiteSpace=wrap;rounded=0;fontFamily=Architects Daughter;fontSource=https%3A%2F%2Ffonts.googleapis.com%2Fcss%3Ffamily%3DArchitects%2BDaughter;fontColor=#143642;" parent="1" vertex="1">
          <mxGeometry x="440" y="-995" width="60" height="30" as="geometry" />
        </mxCell>
        <mxCell id="UxQPK8iq0NYNORmXwXlF-21" value="&lt;span style=&quot;font-size: 24px;&quot;&gt;Trainee_Address&lt;/span&gt;" style="text;strokeColor=none;align=center;fillColor=none;html=1;verticalAlign=middle;whiteSpace=wrap;rounded=0;labelBackgroundColor=none;fontColor=#143642;" parent="1" vertex="1">
          <mxGeometry x="20" y="-880" width="180" height="50" as="geometry" />
        </mxCell>
        <mxCell id="UxQPK8iq0NYNORmXwXlF-22" value="" style="rounded=0;whiteSpace=wrap;html=1;hachureGap=4;strokeColor=#0F8B8D;fontFamily=Architects Daughter;fontSource=https%3A%2F%2Ffonts.googleapis.com%2Fcss%3Ffamily%3DArchitects%2BDaughter;fontColor=#143642;fillColor=#FAE5C7;" parent="1" vertex="1">
          <mxGeometry x="30" y="-830" width="260" height="60" as="geometry" />
        </mxCell>
        <mxCell id="UxQPK8iq0NYNORmXwXlF-23" value="&lt;font style=&quot;font-size: 18px;&quot;&gt;Trainee_id&lt;/font&gt;" style="text;strokeColor=none;align=center;fillColor=none;html=1;verticalAlign=middle;whiteSpace=wrap;rounded=0;fontFamily=Architects Daughter;fontSource=https%3A%2F%2Ffonts.googleapis.com%2Fcss%3Ffamily%3DArchitects%2BDaughter;fontColor=#143642;" parent="1" vertex="1">
          <mxGeometry x="60" y="-815" width="60" height="30" as="geometry" />
        </mxCell>
        <mxCell id="UxQPK8iq0NYNORmXwXlF-24" value="" style="endArrow=none;html=1;rounded=0;hachureGap=4;strokeColor=#A8201A;fontFamily=Architects Daughter;fontSource=https%3A%2F%2Ffonts.googleapis.com%2Fcss%3Ffamily%3DArchitects%2BDaughter;fontColor=#143642;fillColor=#FAE5C7;" parent="1" edge="1">
          <mxGeometry width="50" height="50" relative="1" as="geometry">
            <mxPoint x="50" y="-785" as="sourcePoint" />
            <mxPoint x="130" y="-785" as="targetPoint" />
          </mxGeometry>
        </mxCell>
        <mxCell id="UxQPK8iq0NYNORmXwXlF-25" value="" style="endArrow=none;html=1;rounded=0;hachureGap=4;strokeColor=#A8201A;fontFamily=Architects Daughter;fontSource=https%3A%2F%2Ffonts.googleapis.com%2Fcss%3Ffamily%3DArchitects%2BDaughter;fontColor=#143642;fillColor=#FAE5C7;exitX=0.179;exitY=1.047;exitDx=0;exitDy=0;exitPerimeter=0;" parent="1" edge="1">
          <mxGeometry width="50" height="50" relative="1" as="geometry">
            <mxPoint x="161" y="-770" as="sourcePoint" />
            <mxPoint x="160" y="-833" as="targetPoint" />
          </mxGeometry>
        </mxCell>
        <mxCell id="UxQPK8iq0NYNORmXwXlF-26" value="&lt;font style=&quot;font-size: 18px;&quot;&gt;Address&lt;/font&gt;" style="text;strokeColor=none;align=center;fillColor=none;html=1;verticalAlign=middle;whiteSpace=wrap;rounded=0;fontFamily=Architects Daughter;fontSource=https%3A%2F%2Ffonts.googleapis.com%2Fcss%3Ffamily%3DArchitects%2BDaughter;fontColor=#143642;" parent="1" vertex="1">
          <mxGeometry x="200" y="-815" width="60" height="30" as="geometry" />
        </mxCell>
        <mxCell id="UxQPK8iq0NYNORmXwXlF-27" value="" style="endArrow=none;html=1;rounded=0;hachureGap=4;strokeColor=#A8201A;fontFamily=Architects Daughter;fontSource=https%3A%2F%2Ffonts.googleapis.com%2Fcss%3Ffamily%3DArchitects%2BDaughter;fontColor=#143642;fillColor=#FAE5C7;" parent="1" edge="1">
          <mxGeometry width="50" height="50" relative="1" as="geometry">
            <mxPoint x="195" y="-785" as="sourcePoint" />
            <mxPoint x="275" y="-785" as="targetPoint" />
          </mxGeometry>
        </mxCell>
        <mxCell id="xWLtcsl5UL_TNWLRgXfQ-1" value="&lt;span style=&quot;font-size: 24px;&quot;&gt;Project&lt;/span&gt;" style="text;strokeColor=none;align=center;fillColor=none;html=1;verticalAlign=middle;whiteSpace=wrap;rounded=0;labelBackgroundColor=none;fontColor=#143642;" vertex="1" parent="1">
          <mxGeometry x="20" y="-720" width="180" height="50" as="geometry" />
        </mxCell>
        <mxCell id="xWLtcsl5UL_TNWLRgXfQ-2" value="" style="rounded=0;whiteSpace=wrap;html=1;hachureGap=4;strokeColor=#0F8B8D;fontFamily=Architects Daughter;fontSource=https%3A%2F%2Ffonts.googleapis.com%2Fcss%3Ffamily%3DArchitects%2BDaughter;fontColor=#143642;fillColor=#FAE5C7;" vertex="1" parent="1">
          <mxGeometry x="30" y="-670" width="690" height="60" as="geometry" />
        </mxCell>
        <mxCell id="xWLtcsl5UL_TNWLRgXfQ-3" value="&lt;font style=&quot;font-size: 18px;&quot;&gt;Project_Id&lt;/font&gt;" style="text;strokeColor=none;align=center;fillColor=none;html=1;verticalAlign=middle;whiteSpace=wrap;rounded=0;fontFamily=Architects Daughter;fontSource=https%3A%2F%2Ffonts.googleapis.com%2Fcss%3Ffamily%3DArchitects%2BDaughter;fontColor=#143642;" vertex="1" parent="1">
          <mxGeometry x="60" y="-655" width="60" height="30" as="geometry" />
        </mxCell>
        <mxCell id="xWLtcsl5UL_TNWLRgXfQ-4" value="" style="endArrow=none;html=1;rounded=0;hachureGap=4;strokeColor=#A8201A;fontFamily=Architects Daughter;fontSource=https%3A%2F%2Ffonts.googleapis.com%2Fcss%3Ffamily%3DArchitects%2BDaughter;fontColor=#143642;fillColor=#FAE5C7;" edge="1" parent="1">
          <mxGeometry width="50" height="50" relative="1" as="geometry">
            <mxPoint x="50" y="-625" as="sourcePoint" />
            <mxPoint x="130" y="-625" as="targetPoint" />
          </mxGeometry>
        </mxCell>
        <mxCell id="xWLtcsl5UL_TNWLRgXfQ-5" value="" style="endArrow=none;html=1;rounded=0;hachureGap=4;strokeColor=#A8201A;fontFamily=Architects Daughter;fontSource=https%3A%2F%2Ffonts.googleapis.com%2Fcss%3Ffamily%3DArchitects%2BDaughter;fontColor=#143642;fillColor=#FAE5C7;exitX=0.179;exitY=1.047;exitDx=0;exitDy=0;exitPerimeter=0;" edge="1" parent="1">
          <mxGeometry width="50" height="50" relative="1" as="geometry">
            <mxPoint x="161" y="-610" as="sourcePoint" />
            <mxPoint x="160" y="-673" as="targetPoint" />
          </mxGeometry>
        </mxCell>
        <mxCell id="xWLtcsl5UL_TNWLRgXfQ-6" value="&lt;font style=&quot;font-size: 18px;&quot;&gt;Pname&lt;/font&gt;" style="text;strokeColor=none;align=center;fillColor=none;html=1;verticalAlign=middle;whiteSpace=wrap;rounded=0;fontFamily=Architects Daughter;fontSource=https%3A%2F%2Ffonts.googleapis.com%2Fcss%3Ffamily%3DArchitects%2BDaughter;fontColor=#143642;" vertex="1" parent="1">
          <mxGeometry x="200" y="-655" width="60" height="30" as="geometry" />
        </mxCell>
        <mxCell id="xWLtcsl5UL_TNWLRgXfQ-7" value="" style="endArrow=none;html=1;rounded=0;hachureGap=4;strokeColor=#A8201A;fontFamily=Architects Daughter;fontSource=https%3A%2F%2Ffonts.googleapis.com%2Fcss%3Ffamily%3DArchitects%2BDaughter;fontColor=#143642;fillColor=#FAE5C7;" edge="1" parent="1">
          <mxGeometry width="50" height="50" relative="1" as="geometry">
            <mxPoint x="195" y="-625" as="sourcePoint" />
            <mxPoint x="275" y="-625" as="targetPoint" />
          </mxGeometry>
        </mxCell>
        <mxCell id="xWLtcsl5UL_TNWLRgXfQ-8" value="" style="endArrow=none;html=1;rounded=0;hachureGap=4;strokeColor=#A8201A;fontFamily=Architects Daughter;fontSource=https%3A%2F%2Ffonts.googleapis.com%2Fcss%3Ffamily%3DArchitects%2BDaughter;fontColor=#143642;fillColor=#FAE5C7;exitX=0.179;exitY=1.047;exitDx=0;exitDy=0;exitPerimeter=0;" edge="1" parent="1">
          <mxGeometry width="50" height="50" relative="1" as="geometry">
            <mxPoint x="280.5" y="-610" as="sourcePoint" />
            <mxPoint x="279.5" y="-673" as="targetPoint" />
          </mxGeometry>
        </mxCell>
        <mxCell id="xWLtcsl5UL_TNWLRgXfQ-9" value="" style="endArrow=none;html=1;rounded=0;hachureGap=4;strokeColor=#A8201A;fontFamily=Architects Daughter;fontSource=https%3A%2F%2Ffonts.googleapis.com%2Fcss%3Ffamily%3DArchitects%2BDaughter;fontColor=#143642;fillColor=#FAE5C7;exitX=0.179;exitY=1.047;exitDx=0;exitDy=0;exitPerimeter=0;" edge="1" parent="1">
          <mxGeometry width="50" height="50" relative="1" as="geometry">
            <mxPoint x="721" y="-720" as="sourcePoint" />
            <mxPoint x="720" y="-783" as="targetPoint" />
          </mxGeometry>
        </mxCell>
        <mxCell id="xWLtcsl5UL_TNWLRgXfQ-10" value="&lt;font style=&quot;font-size: 18px;&quot;&gt;Evaluation&lt;/font&gt;" style="text;strokeColor=none;align=center;fillColor=none;html=1;verticalAlign=middle;whiteSpace=wrap;rounded=0;fontFamily=Architects Daughter;fontSource=https%3A%2F%2Ffonts.googleapis.com%2Fcss%3Ffamily%3DArchitects%2BDaughter;fontColor=#143642;" vertex="1" parent="1">
          <mxGeometry x="310" y="-655" width="60" height="30" as="geometry" />
        </mxCell>
        <mxCell id="xWLtcsl5UL_TNWLRgXfQ-11" value="" style="endArrow=none;html=1;rounded=0;hachureGap=4;strokeColor=#A8201A;fontFamily=Architects Daughter;fontSource=https%3A%2F%2Ffonts.googleapis.com%2Fcss%3Ffamily%3DArchitects%2BDaughter;fontColor=#143642;fillColor=#FAE5C7;" edge="1" parent="1">
          <mxGeometry width="50" height="50" relative="1" as="geometry">
            <mxPoint x="500" y="-610" as="sourcePoint" />
            <mxPoint x="500" y="-670" as="targetPoint" />
          </mxGeometry>
        </mxCell>
        <mxCell id="xWLtcsl5UL_TNWLRgXfQ-12" value="&lt;font style=&quot;font-size: 24px;&quot;&gt;Instructor&lt;/font&gt;" style="text;strokeColor=none;align=center;fillColor=none;html=1;verticalAlign=middle;whiteSpace=wrap;rounded=0;labelBackgroundColor=none;fontColor=#143642;" vertex="1" parent="1">
          <mxGeometry x="30" y="-525" width="90" height="50" as="geometry" />
        </mxCell>
        <mxCell id="xWLtcsl5UL_TNWLRgXfQ-13" value="" style="rounded=0;whiteSpace=wrap;html=1;labelBackgroundColor=none;fillColor=#FAE5C7;strokeColor=#0F8B8D;fontColor=#143642;" vertex="1" parent="1">
          <mxGeometry x="40" y="-475" width="325" height="60" as="geometry" />
        </mxCell>
        <mxCell id="xWLtcsl5UL_TNWLRgXfQ-15" value="&lt;font style=&quot;font-size: 18px;&quot;&gt;Ins_id&lt;/font&gt;" style="text;strokeColor=none;align=center;fillColor=none;html=1;verticalAlign=middle;whiteSpace=wrap;rounded=0;fontFamily=Architects Daughter;fontSource=https%3A%2F%2Ffonts.googleapis.com%2Fcss%3Ffamily%3DArchitects%2BDaughter;fontColor=#143642;" vertex="1" parent="1">
          <mxGeometry x="60" y="-460" width="60" height="30" as="geometry" />
        </mxCell>
        <mxCell id="xWLtcsl5UL_TNWLRgXfQ-16" value="" style="endArrow=none;html=1;rounded=0;hachureGap=4;strokeColor=#A8201A;fontFamily=Architects Daughter;fontSource=https%3A%2F%2Ffonts.googleapis.com%2Fcss%3Ffamily%3DArchitects%2BDaughter;fontColor=#143642;fillColor=#FAE5C7;" edge="1" parent="1">
          <mxGeometry width="50" height="50" relative="1" as="geometry">
            <mxPoint x="50" y="-430" as="sourcePoint" />
            <mxPoint x="130" y="-430" as="targetPoint" />
          </mxGeometry>
        </mxCell>
        <mxCell id="xWLtcsl5UL_TNWLRgXfQ-17" value="" style="endArrow=none;html=1;rounded=0;hachureGap=4;strokeColor=#A8201A;fontFamily=Architects Daughter;fontSource=https%3A%2F%2Ffonts.googleapis.com%2Fcss%3Ffamily%3DArchitects%2BDaughter;fontColor=#143642;fillColor=#FAE5C7;exitX=0.179;exitY=1.047;exitDx=0;exitDy=0;exitPerimeter=0;" edge="1" parent="1">
          <mxGeometry width="50" height="50" relative="1" as="geometry">
            <mxPoint x="251" y="-413.5" as="sourcePoint" />
            <mxPoint x="250" y="-476.5" as="targetPoint" />
          </mxGeometry>
        </mxCell>
        <mxCell id="xWLtcsl5UL_TNWLRgXfQ-18" value="&lt;font style=&quot;font-size: 18px;&quot;&gt;Name&lt;/font&gt;" style="text;strokeColor=none;align=center;fillColor=none;html=1;verticalAlign=middle;whiteSpace=wrap;rounded=0;fontFamily=Architects Daughter;fontSource=https%3A%2F%2Ffonts.googleapis.com%2Fcss%3Ffamily%3DArchitects%2BDaughter;fontColor=#143642;" vertex="1" parent="1">
          <mxGeometry x="170" y="-460" width="60" height="30" as="geometry" />
        </mxCell>
        <mxCell id="xWLtcsl5UL_TNWLRgXfQ-19" value="&lt;font style=&quot;font-size: 18px;&quot;&gt;Salary&lt;/font&gt;" style="text;strokeColor=none;align=center;fillColor=none;html=1;verticalAlign=middle;whiteSpace=wrap;rounded=0;fontFamily=Architects Daughter;fontSource=https%3A%2F%2Ffonts.googleapis.com%2Fcss%3Ffamily%3DArchitects%2BDaughter;fontColor=#143642;" vertex="1" parent="1">
          <mxGeometry x="260" y="-460" width="60" height="30" as="geometry" />
        </mxCell>
        <mxCell id="xWLtcsl5UL_TNWLRgXfQ-20" value="" style="endArrow=none;html=1;rounded=0;hachureGap=4;strokeColor=#A8201A;fontFamily=Architects Daughter;fontSource=https%3A%2F%2Ffonts.googleapis.com%2Fcss%3Ffamily%3DArchitects%2BDaughter;fontColor=#143642;fillColor=#FAE5C7;entryX=0.385;entryY=0;entryDx=0;entryDy=0;entryPerimeter=0;exitX=0.391;exitY=1.04;exitDx=0;exitDy=0;exitPerimeter=0;" edge="1" parent="1" source="xWLtcsl5UL_TNWLRgXfQ-13" target="xWLtcsl5UL_TNWLRgXfQ-13">
          <mxGeometry width="50" height="50" relative="1" as="geometry">
            <mxPoint x="165" y="-420" as="sourcePoint" />
            <mxPoint x="165" y="-470.36" as="targetPoint" />
          </mxGeometry>
        </mxCell>
        <mxCell id="xWLtcsl5UL_TNWLRgXfQ-21" value="" style="endArrow=none;html=1;rounded=0;hachureGap=4;strokeColor=#A8201A;fontFamily=Architects Daughter;fontSource=https%3A%2F%2Ffonts.googleapis.com%2Fcss%3Ffamily%3DArchitects%2BDaughter;fontColor=#143642;fillColor=#FAE5C7;entryX=0.524;entryY=1.1;entryDx=0;entryDy=0;entryPerimeter=0;" edge="1" parent="1" target="xWLtcsl5UL_TNWLRgXfQ-2">
          <mxGeometry width="50" height="50" relative="1" as="geometry">
            <mxPoint x="390" y="-670" as="sourcePoint" />
            <mxPoint x="390" y="-620" as="targetPoint" />
            <Array as="points">
              <mxPoint x="390" y="-650" />
            </Array>
          </mxGeometry>
        </mxCell>
        <mxCell id="xWLtcsl5UL_TNWLRgXfQ-22" value="&lt;font style=&quot;font-size: 18px;&quot;&gt;Ins_Id&lt;/font&gt;" style="text;strokeColor=none;align=center;fillColor=none;html=1;verticalAlign=middle;whiteSpace=wrap;rounded=0;fontFamily=Architects Daughter;fontSource=https%3A%2F%2Ffonts.googleapis.com%2Fcss%3Ffamily%3DArchitects%2BDaughter;fontColor=#143642;" vertex="1" parent="1">
          <mxGeometry x="425" y="-655" width="60" height="30" as="geometry" />
        </mxCell>
        <mxCell id="xWLtcsl5UL_TNWLRgXfQ-23" value="&lt;font style=&quot;font-size: 18px;&quot;&gt;Trainee_id&lt;/font&gt;" style="text;strokeColor=none;align=center;fillColor=none;html=1;verticalAlign=middle;whiteSpace=wrap;rounded=0;fontFamily=Architects Daughter;fontSource=https%3A%2F%2Ffonts.googleapis.com%2Fcss%3Ffamily%3DArchitects%2BDaughter;fontColor=#143642;" vertex="1" parent="1">
          <mxGeometry x="520" y="-655" width="60" height="30" as="geometry" />
        </mxCell>
        <mxCell id="xWLtcsl5UL_TNWLRgXfQ-24" value="" style="endArrow=none;html=1;rounded=0;hachureGap=4;strokeColor=#A8201A;fontFamily=Architects Daughter;fontSource=https%3A%2F%2Ffonts.googleapis.com%2Fcss%3Ffamily%3DArchitects%2BDaughter;fontColor=#143642;fillColor=#FAE5C7;" edge="1" parent="1">
          <mxGeometry width="50" height="50" relative="1" as="geometry">
            <mxPoint x="600" y="-610" as="sourcePoint" />
            <mxPoint x="600" y="-670" as="targetPoint" />
          </mxGeometry>
        </mxCell>
        <mxCell id="xWLtcsl5UL_TNWLRgXfQ-25" value="&lt;font style=&quot;font-size: 18px;&quot;&gt;Crs_Id&lt;/font&gt;" style="text;strokeColor=none;align=center;fillColor=none;html=1;verticalAlign=middle;whiteSpace=wrap;rounded=0;fontFamily=Architects Daughter;fontSource=https%3A%2F%2Ffonts.googleapis.com%2Fcss%3Ffamily%3DArchitects%2BDaughter;fontColor=#143642;" vertex="1" parent="1">
          <mxGeometry x="630" y="-655" width="60" height="30" as="geometry" />
        </mxCell>
        <mxCell id="xWLtcsl5UL_TNWLRgXfQ-26" value="" style="endArrow=classic;html=1;rounded=0;exitX=0.25;exitY=0;exitDx=0;exitDy=0;entryX=0.115;entryY=0.967;entryDx=0;entryDy=0;entryPerimeter=0;" edge="1" parent="1" source="UxQPK8iq0NYNORmXwXlF-22" target="UxQPK8iq0NYNORmXwXlF-2">
          <mxGeometry width="50" height="50" relative="1" as="geometry">
            <mxPoint x="70" y="-900" as="sourcePoint" />
            <mxPoint x="120" y="-950" as="targetPoint" />
          </mxGeometry>
        </mxCell>
        <mxCell id="xWLtcsl5UL_TNWLRgXfQ-27" value="" style="endArrow=classic;html=1;rounded=0;exitX=0.762;exitY=-0.033;exitDx=0;exitDy=0;exitPerimeter=0;entryX=0.138;entryY=0.993;entryDx=0;entryDy=0;entryPerimeter=0;" edge="1" parent="1" source="xWLtcsl5UL_TNWLRgXfQ-2" target="UxQPK8iq0NYNORmXwXlF-2">
          <mxGeometry width="50" height="50" relative="1" as="geometry">
            <mxPoint x="400" y="-680" as="sourcePoint" />
            <mxPoint x="450" y="-730" as="targetPoint" />
          </mxGeometry>
        </mxCell>
        <mxCell id="xWLtcsl5UL_TNWLRgXfQ-28" value="" style="endArrow=classic;html=1;rounded=0;exitX=0.619;exitY=0.967;exitDx=0;exitDy=0;exitPerimeter=0;entryX=0.25;entryY=0;entryDx=0;entryDy=0;" edge="1" parent="1" source="xWLtcsl5UL_TNWLRgXfQ-2" target="xWLtcsl5UL_TNWLRgXfQ-13">
          <mxGeometry width="50" height="50" relative="1" as="geometry">
            <mxPoint x="380" y="-500" as="sourcePoint" />
            <mxPoint x="430" y="-550" as="targetPoint" />
          </mxGeometry>
        </mxCell>
        <mxCell id="xWLtcsl5UL_TNWLRgXfQ-29" value="&lt;font style=&quot;font-size: 24px;&quot;&gt;Track&lt;/font&gt;" style="text;strokeColor=none;align=center;fillColor=none;html=1;verticalAlign=middle;whiteSpace=wrap;rounded=0;labelBackgroundColor=none;fontColor=#143642;" vertex="1" parent="1">
          <mxGeometry x="22.5" y="-360" width="90" height="50" as="geometry" />
        </mxCell>
        <mxCell id="xWLtcsl5UL_TNWLRgXfQ-30" value="" style="rounded=0;whiteSpace=wrap;html=1;labelBackgroundColor=none;fillColor=#FAE5C7;strokeColor=#0F8B8D;fontColor=#143642;" vertex="1" parent="1">
          <mxGeometry x="32.5" y="-310" width="325" height="60" as="geometry" />
        </mxCell>
        <mxCell id="xWLtcsl5UL_TNWLRgXfQ-31" value="&lt;font style=&quot;font-size: 18px;&quot;&gt;Track_Id&lt;/font&gt;" style="text;strokeColor=none;align=center;fillColor=none;html=1;verticalAlign=middle;whiteSpace=wrap;rounded=0;fontFamily=Architects Daughter;fontSource=https%3A%2F%2Ffonts.googleapis.com%2Fcss%3Ffamily%3DArchitects%2BDaughter;fontColor=#143642;" vertex="1" parent="1">
          <mxGeometry x="52.5" y="-295" width="60" height="30" as="geometry" />
        </mxCell>
        <mxCell id="xWLtcsl5UL_TNWLRgXfQ-32" value="" style="endArrow=none;html=1;rounded=0;hachureGap=4;strokeColor=#A8201A;fontFamily=Architects Daughter;fontSource=https%3A%2F%2Ffonts.googleapis.com%2Fcss%3Ffamily%3DArchitects%2BDaughter;fontColor=#143642;fillColor=#FAE5C7;" edge="1" parent="1">
          <mxGeometry width="50" height="50" relative="1" as="geometry">
            <mxPoint x="42.5" y="-265" as="sourcePoint" />
            <mxPoint x="122.5" y="-265" as="targetPoint" />
          </mxGeometry>
        </mxCell>
        <mxCell id="xWLtcsl5UL_TNWLRgXfQ-33" value="" style="endArrow=none;html=1;rounded=0;hachureGap=4;strokeColor=#A8201A;fontFamily=Architects Daughter;fontSource=https%3A%2F%2Ffonts.googleapis.com%2Fcss%3Ffamily%3DArchitects%2BDaughter;fontColor=#143642;fillColor=#FAE5C7;exitX=0.179;exitY=1.047;exitDx=0;exitDy=0;exitPerimeter=0;" edge="1" parent="1">
          <mxGeometry width="50" height="50" relative="1" as="geometry">
            <mxPoint x="243.5" y="-248.5" as="sourcePoint" />
            <mxPoint x="242.5" y="-311.5" as="targetPoint" />
          </mxGeometry>
        </mxCell>
        <mxCell id="xWLtcsl5UL_TNWLRgXfQ-34" value="&lt;font style=&quot;font-size: 18px;&quot;&gt;Name&lt;/font&gt;" style="text;strokeColor=none;align=center;fillColor=none;html=1;verticalAlign=middle;whiteSpace=wrap;rounded=0;fontFamily=Architects Daughter;fontSource=https%3A%2F%2Ffonts.googleapis.com%2Fcss%3Ffamily%3DArchitects%2BDaughter;fontColor=#143642;" vertex="1" parent="1">
          <mxGeometry x="162.5" y="-295" width="60" height="30" as="geometry" />
        </mxCell>
        <mxCell id="xWLtcsl5UL_TNWLRgXfQ-36" value="" style="endArrow=none;html=1;rounded=0;hachureGap=4;strokeColor=#A8201A;fontFamily=Architects Daughter;fontSource=https%3A%2F%2Ffonts.googleapis.com%2Fcss%3Ffamily%3DArchitects%2BDaughter;fontColor=#143642;fillColor=#FAE5C7;entryX=0.385;entryY=0;entryDx=0;entryDy=0;entryPerimeter=0;exitX=0.391;exitY=1.04;exitDx=0;exitDy=0;exitPerimeter=0;" edge="1" parent="1" source="xWLtcsl5UL_TNWLRgXfQ-30" target="xWLtcsl5UL_TNWLRgXfQ-30">
          <mxGeometry width="50" height="50" relative="1" as="geometry">
            <mxPoint x="157.5" y="-255" as="sourcePoint" />
            <mxPoint x="157.5" y="-305.36" as="targetPoint" />
          </mxGeometry>
        </mxCell>
        <mxCell id="xWLtcsl5UL_TNWLRgXfQ-37" value="&lt;font style=&quot;font-size: 18px;&quot;&gt;Ins_Id&lt;/font&gt;" style="text;strokeColor=none;align=center;fillColor=none;html=1;verticalAlign=middle;whiteSpace=wrap;rounded=0;fontFamily=Architects Daughter;fontSource=https%3A%2F%2Ffonts.googleapis.com%2Fcss%3Ffamily%3DArchitects%2BDaughter;fontColor=#143642;" vertex="1" parent="1">
          <mxGeometry x="270" y="-300" width="60" height="30" as="geometry" />
        </mxCell>
        <mxCell id="xWLtcsl5UL_TNWLRgXfQ-38" value="" style="endArrow=classic;html=1;rounded=0;exitX=0.824;exitY=0.007;exitDx=0;exitDy=0;exitPerimeter=0;entryX=0.215;entryY=0.97;entryDx=0;entryDy=0;entryPerimeter=0;" edge="1" parent="1" source="xWLtcsl5UL_TNWLRgXfQ-30" target="xWLtcsl5UL_TNWLRgXfQ-13">
          <mxGeometry width="50" height="50" relative="1" as="geometry">
            <mxPoint x="400" y="-480" as="sourcePoint" />
            <mxPoint x="450" y="-530" as="targetPoint" />
          </mxGeometry>
        </mxCell>
        <mxCell id="xWLtcsl5UL_TNWLRgXfQ-39" value="&lt;span style=&quot;font-size: 24px;&quot;&gt;Course&lt;/span&gt;" style="text;strokeColor=none;align=center;fillColor=none;html=1;verticalAlign=middle;whiteSpace=wrap;rounded=0;labelBackgroundColor=none;fontColor=#143642;" vertex="1" parent="1">
          <mxGeometry x="2.5" y="-190" width="180" height="50" as="geometry" />
        </mxCell>
        <mxCell id="xWLtcsl5UL_TNWLRgXfQ-40" value="" style="rounded=0;whiteSpace=wrap;html=1;hachureGap=4;strokeColor=#0F8B8D;fontFamily=Architects Daughter;fontSource=https%3A%2F%2Ffonts.googleapis.com%2Fcss%3Ffamily%3DArchitects%2BDaughter;fontColor=#143642;fillColor=#FAE5C7;" vertex="1" parent="1">
          <mxGeometry x="32.5" y="-140" width="437.5" height="60" as="geometry" />
        </mxCell>
        <mxCell id="xWLtcsl5UL_TNWLRgXfQ-41" value="&lt;font style=&quot;font-size: 18px;&quot;&gt;Crs_Id&lt;/font&gt;" style="text;strokeColor=none;align=center;fillColor=none;html=1;verticalAlign=middle;whiteSpace=wrap;rounded=0;fontFamily=Architects Daughter;fontSource=https%3A%2F%2Ffonts.googleapis.com%2Fcss%3Ffamily%3DArchitects%2BDaughter;fontColor=#143642;" vertex="1" parent="1">
          <mxGeometry x="62.5" y="-125" width="60" height="30" as="geometry" />
        </mxCell>
        <mxCell id="xWLtcsl5UL_TNWLRgXfQ-42" value="" style="endArrow=none;html=1;rounded=0;hachureGap=4;strokeColor=#A8201A;fontFamily=Architects Daughter;fontSource=https%3A%2F%2Ffonts.googleapis.com%2Fcss%3Ffamily%3DArchitects%2BDaughter;fontColor=#143642;fillColor=#FAE5C7;" edge="1" parent="1">
          <mxGeometry width="50" height="50" relative="1" as="geometry">
            <mxPoint x="52.5" y="-95" as="sourcePoint" />
            <mxPoint x="132.5" y="-95" as="targetPoint" />
          </mxGeometry>
        </mxCell>
        <mxCell id="xWLtcsl5UL_TNWLRgXfQ-43" value="" style="endArrow=none;html=1;rounded=0;hachureGap=4;strokeColor=#A8201A;fontFamily=Architects Daughter;fontSource=https%3A%2F%2Ffonts.googleapis.com%2Fcss%3Ffamily%3DArchitects%2BDaughter;fontColor=#143642;fillColor=#FAE5C7;exitX=0.179;exitY=1.047;exitDx=0;exitDy=0;exitPerimeter=0;" edge="1" parent="1">
          <mxGeometry width="50" height="50" relative="1" as="geometry">
            <mxPoint x="163.5" y="-80" as="sourcePoint" />
            <mxPoint x="162.5" y="-143" as="targetPoint" />
          </mxGeometry>
        </mxCell>
        <mxCell id="xWLtcsl5UL_TNWLRgXfQ-44" value="&lt;font style=&quot;font-size: 18px;&quot;&gt;Name&lt;/font&gt;" style="text;strokeColor=none;align=center;fillColor=none;html=1;verticalAlign=middle;whiteSpace=wrap;rounded=0;fontFamily=Architects Daughter;fontSource=https%3A%2F%2Ffonts.googleapis.com%2Fcss%3Ffamily%3DArchitects%2BDaughter;fontColor=#143642;" vertex="1" parent="1">
          <mxGeometry x="177.5" y="-117.5" width="60" height="15" as="geometry" />
        </mxCell>
        <mxCell id="xWLtcsl5UL_TNWLRgXfQ-45" value="" style="endArrow=none;html=1;rounded=0;hachureGap=4;strokeColor=#A8201A;fontFamily=Architects Daughter;fontSource=https%3A%2F%2Ffonts.googleapis.com%2Fcss%3Ffamily%3DArchitects%2BDaughter;fontColor=#143642;fillColor=#FAE5C7;exitX=0.179;exitY=1.047;exitDx=0;exitDy=0;exitPerimeter=0;" edge="1" parent="1">
          <mxGeometry width="50" height="50" relative="1" as="geometry">
            <mxPoint x="253.5" y="-80" as="sourcePoint" />
            <mxPoint x="252.5" y="-143" as="targetPoint" />
          </mxGeometry>
        </mxCell>
        <mxCell id="xWLtcsl5UL_TNWLRgXfQ-46" value="&lt;font style=&quot;font-size: 18px;&quot;&gt;Duration&lt;/font&gt;" style="text;strokeColor=none;align=center;fillColor=none;html=1;verticalAlign=middle;whiteSpace=wrap;rounded=0;fontFamily=Architects Daughter;fontSource=https%3A%2F%2Ffonts.googleapis.com%2Fcss%3Ffamily%3DArchitects%2BDaughter;fontColor=#143642;" vertex="1" parent="1">
          <mxGeometry x="282.5" y="-130" width="60" height="35" as="geometry" />
        </mxCell>
        <mxCell id="xWLtcsl5UL_TNWLRgXfQ-48" value="" style="endArrow=classic;html=1;rounded=0;hachureGap=4;strokeColor=#A8201A;fontFamily=Architects Daughter;fontSource=https%3A%2F%2Ffonts.googleapis.com%2Fcss%3Ffamily%3DArchitects%2BDaughter;fontColor=#143642;fillColor=#FAE5C7;exitX=0.904;exitY=0.013;exitDx=0;exitDy=0;entryX=0.282;entryY=0.98;entryDx=0;entryDy=0;entryPerimeter=0;exitPerimeter=0;" edge="1" parent="1" source="xWLtcsl5UL_TNWLRgXfQ-40" target="xWLtcsl5UL_TNWLRgXfQ-30">
          <mxGeometry width="50" height="50" relative="1" as="geometry">
            <mxPoint x="737" y="-17" as="sourcePoint" />
            <mxPoint x="680" y="-280" as="targetPoint" />
          </mxGeometry>
        </mxCell>
        <mxCell id="xWLtcsl5UL_TNWLRgXfQ-49" value="&lt;font style=&quot;font-size: 18px;&quot;&gt;Track_Id&lt;/font&gt;" style="text;strokeColor=none;align=center;fillColor=none;html=1;verticalAlign=middle;whiteSpace=wrap;rounded=0;fontFamily=Architects Daughter;fontSource=https%3A%2F%2Ffonts.googleapis.com%2Fcss%3Ffamily%3DArchitects%2BDaughter;fontColor=#143642;" vertex="1" parent="1">
          <mxGeometry x="390" y="-127.5" width="60" height="30" as="geometry" />
        </mxCell>
        <mxCell id="xWLtcsl5UL_TNWLRgXfQ-50" value="" style="endArrow=none;html=1;rounded=0;hachureGap=4;strokeColor=#A8201A;fontFamily=Architects Daughter;fontSource=https%3A%2F%2Ffonts.googleapis.com%2Fcss%3Ffamily%3DArchitects%2BDaughter;fontColor=#143642;fillColor=#FAE5C7;entryX=0.385;entryY=0;entryDx=0;entryDy=0;entryPerimeter=0;exitX=0.391;exitY=1.04;exitDx=0;exitDy=0;exitPerimeter=0;" edge="1" parent="1">
          <mxGeometry width="50" height="50" relative="1" as="geometry">
            <mxPoint x="359.5" y="-81.5" as="sourcePoint" />
            <mxPoint x="357.5" y="-143.5" as="targetPoint" />
          </mxGeometry>
        </mxCell>
        <mxCell id="xWLtcsl5UL_TNWLRgXfQ-53" value="&lt;span style=&quot;font-size: 24px;&quot;&gt;Mentor&lt;/span&gt;" style="text;strokeColor=none;align=center;fillColor=none;html=1;verticalAlign=middle;whiteSpace=wrap;rounded=0;labelBackgroundColor=none;fontColor=#143642;" vertex="1" parent="1">
          <mxGeometry x="-10" y="15" width="180" height="50" as="geometry" />
        </mxCell>
        <mxCell id="xWLtcsl5UL_TNWLRgXfQ-54" value="" style="rounded=0;whiteSpace=wrap;html=1;hachureGap=4;strokeColor=#0F8B8D;fontFamily=Architects Daughter;fontSource=https%3A%2F%2Ffonts.googleapis.com%2Fcss%3Ffamily%3DArchitects%2BDaughter;fontColor=#143642;fillColor=#FAE5C7;" vertex="1" parent="1">
          <mxGeometry x="20" y="65" width="450" height="60" as="geometry" />
        </mxCell>
        <mxCell id="xWLtcsl5UL_TNWLRgXfQ-55" value="&lt;font style=&quot;font-size: 18px;&quot;&gt;Mentor_Id&lt;/font&gt;" style="text;strokeColor=none;align=center;fillColor=none;html=1;verticalAlign=middle;whiteSpace=wrap;rounded=0;fontFamily=Architects Daughter;fontSource=https%3A%2F%2Ffonts.googleapis.com%2Fcss%3Ffamily%3DArchitects%2BDaughter;fontColor=#143642;" vertex="1" parent="1">
          <mxGeometry x="50" y="80" width="60" height="30" as="geometry" />
        </mxCell>
        <mxCell id="xWLtcsl5UL_TNWLRgXfQ-56" value="" style="endArrow=none;html=1;rounded=0;hachureGap=4;strokeColor=#A8201A;fontFamily=Architects Daughter;fontSource=https%3A%2F%2Ffonts.googleapis.com%2Fcss%3Ffamily%3DArchitects%2BDaughter;fontColor=#143642;fillColor=#FAE5C7;" edge="1" parent="1">
          <mxGeometry width="50" height="50" relative="1" as="geometry">
            <mxPoint x="40" y="110" as="sourcePoint" />
            <mxPoint x="120" y="110" as="targetPoint" />
          </mxGeometry>
        </mxCell>
        <mxCell id="xWLtcsl5UL_TNWLRgXfQ-57" value="" style="endArrow=none;html=1;rounded=0;hachureGap=4;strokeColor=#A8201A;fontFamily=Architects Daughter;fontSource=https%3A%2F%2Ffonts.googleapis.com%2Fcss%3Ffamily%3DArchitects%2BDaughter;fontColor=#143642;fillColor=#FAE5C7;exitX=0.179;exitY=1.047;exitDx=0;exitDy=0;exitPerimeter=0;" edge="1" parent="1">
          <mxGeometry width="50" height="50" relative="1" as="geometry">
            <mxPoint x="151" y="125" as="sourcePoint" />
            <mxPoint x="150" y="62" as="targetPoint" />
          </mxGeometry>
        </mxCell>
        <mxCell id="xWLtcsl5UL_TNWLRgXfQ-58" value="&lt;font style=&quot;font-size: 18px;&quot;&gt;Name&lt;/font&gt;" style="text;strokeColor=none;align=center;fillColor=none;html=1;verticalAlign=middle;whiteSpace=wrap;rounded=0;fontFamily=Architects Daughter;fontSource=https%3A%2F%2Ffonts.googleapis.com%2Fcss%3Ffamily%3DArchitects%2BDaughter;fontColor=#143642;" vertex="1" parent="1">
          <mxGeometry x="165" y="87.5" width="60" height="15" as="geometry" />
        </mxCell>
        <mxCell id="xWLtcsl5UL_TNWLRgXfQ-59" value="" style="endArrow=none;html=1;rounded=0;hachureGap=4;strokeColor=#A8201A;fontFamily=Architects Daughter;fontSource=https%3A%2F%2Ffonts.googleapis.com%2Fcss%3Ffamily%3DArchitects%2BDaughter;fontColor=#143642;fillColor=#FAE5C7;exitX=0.179;exitY=1.047;exitDx=0;exitDy=0;exitPerimeter=0;" edge="1" parent="1">
          <mxGeometry width="50" height="50" relative="1" as="geometry">
            <mxPoint x="241" y="125" as="sourcePoint" />
            <mxPoint x="240" y="62" as="targetPoint" />
          </mxGeometry>
        </mxCell>
        <mxCell id="xWLtcsl5UL_TNWLRgXfQ-60" value="&lt;font style=&quot;font-size: 18px;&quot;&gt;Gender&lt;/font&gt;" style="text;strokeColor=none;align=center;fillColor=none;html=1;verticalAlign=middle;whiteSpace=wrap;rounded=0;fontFamily=Architects Daughter;fontSource=https%3A%2F%2Ffonts.googleapis.com%2Fcss%3Ffamily%3DArchitects%2BDaughter;fontColor=#143642;" vertex="1" parent="1">
          <mxGeometry x="270" y="75" width="60" height="35" as="geometry" />
        </mxCell>
        <mxCell id="xWLtcsl5UL_TNWLRgXfQ-62" value="" style="endArrow=classic;html=1;rounded=0;hachureGap=4;strokeColor=#A8201A;fontFamily=Architects Daughter;fontSource=https%3A%2F%2Ffonts.googleapis.com%2Fcss%3Ffamily%3DArchitects%2BDaughter;fontColor=#143642;fillColor=#FAE5C7;exitX=0.66;exitY=0.047;exitDx=0;exitDy=0;exitPerimeter=0;entryX=0.181;entryY=0.997;entryDx=0;entryDy=0;entryPerimeter=0;" edge="1" parent="1" source="xWLtcsl5UL_TNWLRgXfQ-65" target="xWLtcsl5UL_TNWLRgXfQ-54">
          <mxGeometry width="50" height="50" relative="1" as="geometry">
            <mxPoint x="789.6199999999999" y="247.19999999999982" as="sourcePoint" />
            <mxPoint x="700" y="-20" as="targetPoint" />
          </mxGeometry>
        </mxCell>
        <mxCell id="xWLtcsl5UL_TNWLRgXfQ-63" value="" style="endArrow=none;html=1;rounded=0;hachureGap=4;strokeColor=#A8201A;fontFamily=Architects Daughter;fontSource=https%3A%2F%2Ffonts.googleapis.com%2Fcss%3Ffamily%3DArchitects%2BDaughter;fontColor=#143642;fillColor=#FAE5C7;" edge="1" parent="1" source="xWLtcsl5UL_TNWLRgXfQ-54">
          <mxGeometry width="50" height="50" relative="1" as="geometry">
            <mxPoint x="350" y="128" as="sourcePoint" />
            <mxPoint x="349" y="65" as="targetPoint" />
            <Array as="points">
              <mxPoint x="350" y="125" />
            </Array>
          </mxGeometry>
        </mxCell>
        <mxCell id="xWLtcsl5UL_TNWLRgXfQ-64" value="&lt;font style=&quot;font-size: 18px;&quot;&gt;Ins_id&lt;/font&gt;" style="text;strokeColor=none;align=center;fillColor=none;html=1;verticalAlign=middle;whiteSpace=wrap;rounded=0;fontFamily=Architects Daughter;fontSource=https%3A%2F%2Ffonts.googleapis.com%2Fcss%3Ffamily%3DArchitects%2BDaughter;fontColor=#143642;" vertex="1" parent="1">
          <mxGeometry x="370" y="80" width="60" height="30" as="geometry" />
        </mxCell>
        <mxCell id="xWLtcsl5UL_TNWLRgXfQ-65" value="" style="rounded=0;whiteSpace=wrap;html=1;hachureGap=4;strokeColor=#0F8B8D;fontFamily=Architects Daughter;fontSource=https%3A%2F%2Ffonts.googleapis.com%2Fcss%3Ffamily%3DArchitects%2BDaughter;fontColor=#143642;fillColor=#FAE5C7;" vertex="1" parent="1">
          <mxGeometry x="5" y="230" width="510" height="60" as="geometry" />
        </mxCell>
        <mxCell id="xWLtcsl5UL_TNWLRgXfQ-66" value="&lt;font style=&quot;font-size: 18px;&quot;&gt;Session_Id&lt;/font&gt;" style="text;strokeColor=none;align=center;fillColor=none;html=1;verticalAlign=middle;whiteSpace=wrap;rounded=0;fontFamily=Architects Daughter;fontSource=https%3A%2F%2Ffonts.googleapis.com%2Fcss%3Ffamily%3DArchitects%2BDaughter;fontColor=#143642;" vertex="1" parent="1">
          <mxGeometry x="35" y="245" width="60" height="30" as="geometry" />
        </mxCell>
        <mxCell id="xWLtcsl5UL_TNWLRgXfQ-67" value="" style="endArrow=none;html=1;rounded=0;hachureGap=4;strokeColor=#A8201A;fontFamily=Architects Daughter;fontSource=https%3A%2F%2Ffonts.googleapis.com%2Fcss%3Ffamily%3DArchitects%2BDaughter;fontColor=#143642;fillColor=#FAE5C7;" edge="1" parent="1">
          <mxGeometry width="50" height="50" relative="1" as="geometry">
            <mxPoint x="25" y="275" as="sourcePoint" />
            <mxPoint x="105" y="275" as="targetPoint" />
          </mxGeometry>
        </mxCell>
        <mxCell id="xWLtcsl5UL_TNWLRgXfQ-68" value="" style="endArrow=none;html=1;rounded=0;hachureGap=4;strokeColor=#A8201A;fontFamily=Architects Daughter;fontSource=https%3A%2F%2Ffonts.googleapis.com%2Fcss%3Ffamily%3DArchitects%2BDaughter;fontColor=#143642;fillColor=#FAE5C7;exitX=0.179;exitY=1.047;exitDx=0;exitDy=0;exitPerimeter=0;" edge="1" parent="1">
          <mxGeometry width="50" height="50" relative="1" as="geometry">
            <mxPoint x="136" y="290" as="sourcePoint" />
            <mxPoint x="135" y="227" as="targetPoint" />
          </mxGeometry>
        </mxCell>
        <mxCell id="xWLtcsl5UL_TNWLRgXfQ-69" value="&lt;font style=&quot;font-size: 18px;&quot;&gt;Name&lt;/font&gt;" style="text;strokeColor=none;align=center;fillColor=none;html=1;verticalAlign=middle;whiteSpace=wrap;rounded=0;fontFamily=Architects Daughter;fontSource=https%3A%2F%2Ffonts.googleapis.com%2Fcss%3Ffamily%3DArchitects%2BDaughter;fontColor=#143642;" vertex="1" parent="1">
          <mxGeometry x="160" y="252.5" width="60" height="15" as="geometry" />
        </mxCell>
        <mxCell id="xWLtcsl5UL_TNWLRgXfQ-70" value="&lt;span style=&quot;font-size: 24px;&quot;&gt;Session&lt;/span&gt;" style="text;strokeColor=none;align=center;fillColor=none;html=1;verticalAlign=middle;whiteSpace=wrap;rounded=0;labelBackgroundColor=none;fontColor=#143642;" vertex="1" parent="1">
          <mxGeometry x="-25" y="180" width="180" height="50" as="geometry" />
        </mxCell>
        <mxCell id="xWLtcsl5UL_TNWLRgXfQ-71" value="" style="endArrow=none;html=1;rounded=0;hachureGap=4;strokeColor=#A8201A;fontFamily=Architects Daughter;fontSource=https%3A%2F%2Ffonts.googleapis.com%2Fcss%3Ffamily%3DArchitects%2BDaughter;fontColor=#143642;fillColor=#FAE5C7;exitX=0.179;exitY=1.047;exitDx=0;exitDy=0;exitPerimeter=0;" edge="1" parent="1">
          <mxGeometry width="50" height="50" relative="1" as="geometry">
            <mxPoint x="235" y="293" as="sourcePoint" />
            <mxPoint x="234" y="230" as="targetPoint" />
          </mxGeometry>
        </mxCell>
        <mxCell id="xWLtcsl5UL_TNWLRgXfQ-72" value="&lt;font style=&quot;font-size: 18px;&quot;&gt;Mentor_Id&lt;/font&gt;" style="text;strokeColor=none;align=center;fillColor=none;html=1;verticalAlign=middle;whiteSpace=wrap;rounded=0;fontFamily=Architects Daughter;fontSource=https%3A%2F%2Ffonts.googleapis.com%2Fcss%3Ffamily%3DArchitects%2BDaughter;fontColor=#143642;" vertex="1" parent="1">
          <mxGeometry x="265" y="245" width="60" height="30" as="geometry" />
        </mxCell>
        <mxCell id="xWLtcsl5UL_TNWLRgXfQ-73" value="" style="endArrow=none;html=1;rounded=0;hachureGap=4;strokeColor=#A8201A;fontFamily=Architects Daughter;fontSource=https%3A%2F%2Ffonts.googleapis.com%2Fcss%3Ffamily%3DArchitects%2BDaughter;fontColor=#143642;fillColor=#FAE5C7;exitX=0.179;exitY=1.047;exitDx=0;exitDy=0;exitPerimeter=0;" edge="1" parent="1">
          <mxGeometry width="50" height="50" relative="1" as="geometry">
            <mxPoint x="375" y="293" as="sourcePoint" />
            <mxPoint x="374" y="230" as="targetPoint" />
          </mxGeometry>
        </mxCell>
        <mxCell id="xWLtcsl5UL_TNWLRgXfQ-74" value="&lt;font style=&quot;font-size: 18px;&quot;&gt;Crs_id&lt;/font&gt;" style="text;strokeColor=none;align=center;fillColor=none;html=1;verticalAlign=middle;whiteSpace=wrap;rounded=0;fontFamily=Architects Daughter;fontSource=https%3A%2F%2Ffonts.googleapis.com%2Fcss%3Ffamily%3DArchitects%2BDaughter;fontColor=#143642;" vertex="1" parent="1">
          <mxGeometry x="405" y="252.5" width="60" height="15" as="geometry" />
        </mxCell>
        <mxCell id="xWLtcsl5UL_TNWLRgXfQ-75" value="" style="endArrow=classic;html=1;rounded=0;exitX=0.869;exitY=0.047;exitDx=0;exitDy=0;exitPerimeter=0;entryX=0.204;entryY=0.987;entryDx=0;entryDy=0;entryPerimeter=0;" edge="1" parent="1" source="xWLtcsl5UL_TNWLRgXfQ-65" target="xWLtcsl5UL_TNWLRgXfQ-40">
          <mxGeometry width="50" height="50" relative="1" as="geometry">
            <mxPoint x="400" y="200" as="sourcePoint" />
            <mxPoint x="450" y="150" as="targetPoint" />
          </mxGeometry>
        </mxCell>
        <mxCell id="xWLtcsl5UL_TNWLRgXfQ-76" value="" style="endArrow=classic;html=1;rounded=0;exitX=0.852;exitY=0.023;exitDx=0;exitDy=0;exitPerimeter=0;entryX=0.14;entryY=0.997;entryDx=0;entryDy=0;entryPerimeter=0;" edge="1" parent="1" source="xWLtcsl5UL_TNWLRgXfQ-54" target="xWLtcsl5UL_TNWLRgXfQ-13">
          <mxGeometry width="50" height="50" relative="1" as="geometry">
            <mxPoint x="400" as="sourcePoint" />
            <mxPoint x="670" y="-320" as="targetPoint" />
            <Array as="points">
              <mxPoint x="570" y="-210" />
            </Array>
          </mxGeometry>
        </mxCell>
        <mxCell id="xWLtcsl5UL_TNWLRgXfQ-77" value="&lt;font style=&quot;font-size: 24px;&quot;&gt;Enroll&lt;/font&gt;" style="text;strokeColor=none;align=center;fillColor=none;html=1;verticalAlign=middle;whiteSpace=wrap;rounded=0;labelBackgroundColor=none;fontColor=#143642;" vertex="1" parent="1">
          <mxGeometry x="20" y="340" width="90" height="50" as="geometry" />
        </mxCell>
        <mxCell id="xWLtcsl5UL_TNWLRgXfQ-78" value="" style="rounded=0;whiteSpace=wrap;html=1;labelBackgroundColor=none;fillColor=#FAE5C7;strokeColor=#0F8B8D;fontColor=#143642;" vertex="1" parent="1">
          <mxGeometry x="30" y="390" width="325" height="60" as="geometry" />
        </mxCell>
        <mxCell id="xWLtcsl5UL_TNWLRgXfQ-79" value="&lt;font style=&quot;font-size: 18px;&quot;&gt;Crs_Id&lt;/font&gt;" style="text;strokeColor=none;align=center;fillColor=none;html=1;verticalAlign=middle;whiteSpace=wrap;rounded=0;fontFamily=Architects Daughter;fontSource=https%3A%2F%2Ffonts.googleapis.com%2Fcss%3Ffamily%3DArchitects%2BDaughter;fontColor=#143642;" vertex="1" parent="1">
          <mxGeometry x="50" y="405" width="60" height="30" as="geometry" />
        </mxCell>
        <mxCell id="xWLtcsl5UL_TNWLRgXfQ-80" value="" style="endArrow=none;html=1;rounded=0;hachureGap=4;strokeColor=#A8201A;fontFamily=Architects Daughter;fontSource=https%3A%2F%2Ffonts.googleapis.com%2Fcss%3Ffamily%3DArchitects%2BDaughter;fontColor=#143642;fillColor=#FAE5C7;" edge="1" parent="1">
          <mxGeometry width="50" height="50" relative="1" as="geometry">
            <mxPoint x="40" y="435" as="sourcePoint" />
            <mxPoint x="120" y="435" as="targetPoint" />
          </mxGeometry>
        </mxCell>
        <mxCell id="xWLtcsl5UL_TNWLRgXfQ-81" value="" style="endArrow=none;html=1;rounded=0;hachureGap=4;strokeColor=#A8201A;fontFamily=Architects Daughter;fontSource=https%3A%2F%2Ffonts.googleapis.com%2Fcss%3Ffamily%3DArchitects%2BDaughter;fontColor=#143642;fillColor=#FAE5C7;exitX=0.179;exitY=1.047;exitDx=0;exitDy=0;exitPerimeter=0;" edge="1" parent="1">
          <mxGeometry width="50" height="50" relative="1" as="geometry">
            <mxPoint x="241" y="451.5" as="sourcePoint" />
            <mxPoint x="240" y="388.5" as="targetPoint" />
          </mxGeometry>
        </mxCell>
        <mxCell id="xWLtcsl5UL_TNWLRgXfQ-82" value="&lt;font style=&quot;font-size: 18px;&quot;&gt;Trainee_Id&lt;/font&gt;" style="text;strokeColor=none;align=center;fillColor=none;html=1;verticalAlign=middle;whiteSpace=wrap;rounded=0;fontFamily=Architects Daughter;fontSource=https%3A%2F%2Ffonts.googleapis.com%2Fcss%3Ffamily%3DArchitects%2BDaughter;fontColor=#143642;" vertex="1" parent="1">
          <mxGeometry x="160" y="405" width="60" height="30" as="geometry" />
        </mxCell>
        <mxCell id="xWLtcsl5UL_TNWLRgXfQ-83" value="" style="endArrow=none;html=1;rounded=0;hachureGap=4;strokeColor=#A8201A;fontFamily=Architects Daughter;fontSource=https%3A%2F%2Ffonts.googleapis.com%2Fcss%3Ffamily%3DArchitects%2BDaughter;fontColor=#143642;fillColor=#FAE5C7;entryX=0.311;entryY=-0.047;entryDx=0;entryDy=0;entryPerimeter=0;exitX=0.316;exitY=1.087;exitDx=0;exitDy=0;exitPerimeter=0;" edge="1" parent="1" source="xWLtcsl5UL_TNWLRgXfQ-78" target="xWLtcsl5UL_TNWLRgXfQ-78">
          <mxGeometry width="50" height="50" relative="1" as="geometry">
            <mxPoint x="155" y="445" as="sourcePoint" />
            <mxPoint x="155" y="394.64" as="targetPoint" />
            <Array as="points" />
          </mxGeometry>
        </mxCell>
        <mxCell id="xWLtcsl5UL_TNWLRgXfQ-87" value="" style="endArrow=none;html=1;rounded=0;" edge="1" parent="1">
          <mxGeometry width="50" height="50" relative="1" as="geometry">
            <mxPoint x="155" y="435" as="sourcePoint" />
            <mxPoint x="225" y="435" as="targetPoint" />
          </mxGeometry>
        </mxCell>
        <mxCell id="xWLtcsl5UL_TNWLRgXfQ-88" value="&lt;font style=&quot;font-size: 18px;&quot;&gt;Attendence&lt;/font&gt;" style="text;strokeColor=none;align=center;fillColor=none;html=1;verticalAlign=middle;whiteSpace=wrap;rounded=0;fontFamily=Architects Daughter;fontSource=https%3A%2F%2Ffonts.googleapis.com%2Fcss%3Ffamily%3DArchitects%2BDaughter;fontColor=#143642;" vertex="1" parent="1">
          <mxGeometry x="270" y="405" width="60" height="30" as="geometry" />
        </mxCell>
        <mxCell id="xWLtcsl5UL_TNWLRgXfQ-89" value="&lt;font style=&quot;font-size: 24px;&quot;&gt;Teach&lt;/font&gt;" style="text;strokeColor=none;align=center;fillColor=none;html=1;verticalAlign=middle;whiteSpace=wrap;rounded=0;labelBackgroundColor=none;fontColor=#143642;" vertex="1" parent="1">
          <mxGeometry x="15" y="480" width="90" height="50" as="geometry" />
        </mxCell>
        <mxCell id="xWLtcsl5UL_TNWLRgXfQ-90" value="" style="rounded=0;whiteSpace=wrap;html=1;labelBackgroundColor=none;fillColor=#FAE5C7;strokeColor=#0F8B8D;fontColor=#143642;" vertex="1" parent="1">
          <mxGeometry x="25" y="530" width="225" height="60" as="geometry" />
        </mxCell>
        <mxCell id="xWLtcsl5UL_TNWLRgXfQ-91" value="&lt;font style=&quot;font-size: 18px;&quot;&gt;Mentor_Id&lt;/font&gt;" style="text;strokeColor=none;align=center;fillColor=none;html=1;verticalAlign=middle;whiteSpace=wrap;rounded=0;fontFamily=Architects Daughter;fontSource=https%3A%2F%2Ffonts.googleapis.com%2Fcss%3Ffamily%3DArchitects%2BDaughter;fontColor=#143642;" vertex="1" parent="1">
          <mxGeometry x="45" y="545" width="60" height="30" as="geometry" />
        </mxCell>
        <mxCell id="xWLtcsl5UL_TNWLRgXfQ-92" value="" style="endArrow=none;html=1;rounded=0;hachureGap=4;strokeColor=#A8201A;fontFamily=Architects Daughter;fontSource=https%3A%2F%2Ffonts.googleapis.com%2Fcss%3Ffamily%3DArchitects%2BDaughter;fontColor=#143642;fillColor=#FAE5C7;" edge="1" parent="1">
          <mxGeometry width="50" height="50" relative="1" as="geometry">
            <mxPoint x="35" y="575" as="sourcePoint" />
            <mxPoint x="115" y="575" as="targetPoint" />
          </mxGeometry>
        </mxCell>
        <mxCell id="xWLtcsl5UL_TNWLRgXfQ-94" value="&lt;font style=&quot;font-size: 18px;&quot;&gt;Crs_Id&lt;/font&gt;" style="text;strokeColor=none;align=center;fillColor=none;html=1;verticalAlign=middle;whiteSpace=wrap;rounded=0;fontFamily=Architects Daughter;fontSource=https%3A%2F%2Ffonts.googleapis.com%2Fcss%3Ffamily%3DArchitects%2BDaughter;fontColor=#143642;" vertex="1" parent="1">
          <mxGeometry x="155" y="545" width="60" height="30" as="geometry" />
        </mxCell>
        <mxCell id="xWLtcsl5UL_TNWLRgXfQ-95" value="" style="endArrow=none;html=1;rounded=0;hachureGap=4;strokeColor=#A8201A;fontFamily=Architects Daughter;fontSource=https%3A%2F%2Ffonts.googleapis.com%2Fcss%3Ffamily%3DArchitects%2BDaughter;fontColor=#143642;fillColor=#FAE5C7;entryX=0.5;entryY=0;entryDx=0;entryDy=0;exitX=0.5;exitY=1;exitDx=0;exitDy=0;" edge="1" parent="1" source="xWLtcsl5UL_TNWLRgXfQ-90" target="xWLtcsl5UL_TNWLRgXfQ-90">
          <mxGeometry width="50" height="50" relative="1" as="geometry">
            <mxPoint x="150" y="585" as="sourcePoint" />
            <mxPoint x="150" y="534.64" as="targetPoint" />
            <Array as="points" />
          </mxGeometry>
        </mxCell>
        <mxCell id="xWLtcsl5UL_TNWLRgXfQ-96" value="" style="endArrow=none;html=1;rounded=0;" edge="1" parent="1">
          <mxGeometry width="50" height="50" relative="1" as="geometry">
            <mxPoint x="150" y="575" as="sourcePoint" />
            <mxPoint x="220" y="575" as="targetPoint" />
          </mxGeometry>
        </mxCell>
        <mxCell id="xWLtcsl5UL_TNWLRgXfQ-100" value="" style="endArrow=classic;html=1;rounded=0;exitX=1;exitY=1;exitDx=0;exitDy=0;entryX=0.131;entryY=1;entryDx=0;entryDy=0;entryPerimeter=0;" edge="1" parent="1" source="xWLtcsl5UL_TNWLRgXfQ-77" target="xWLtcsl5UL_TNWLRgXfQ-40">
          <mxGeometry width="50" height="50" relative="1" as="geometry">
            <mxPoint x="400" y="300" as="sourcePoint" />
            <mxPoint x="-110" y="110" as="targetPoint" />
            <Array as="points">
              <mxPoint x="-110" y="290" />
            </Array>
          </mxGeometry>
        </mxCell>
        <mxCell id="xWLtcsl5UL_TNWLRgXfQ-101" value="" style="endArrow=classic;html=1;rounded=0;hachureGap=4;strokeColor=#A8201A;fontFamily=Architects Daughter;fontSource=https%3A%2F%2Ffonts.googleapis.com%2Fcss%3Ffamily%3DArchitects%2BDaughter;fontColor=#143642;fillColor=#FAE5C7;exitX=0.54;exitY=0.047;exitDx=0;exitDy=0;exitPerimeter=0;entryX=0.066;entryY=1.02;entryDx=0;entryDy=0;entryPerimeter=0;" edge="1" parent="1" source="xWLtcsl5UL_TNWLRgXfQ-78" target="UxQPK8iq0NYNORmXwXlF-2">
          <mxGeometry width="50" height="50" relative="1" as="geometry">
            <mxPoint x="352" y="243" as="sourcePoint" />
            <mxPoint x="630" y="-140" as="targetPoint" />
            <Array as="points">
              <mxPoint x="900" y="200" />
            </Array>
          </mxGeometry>
        </mxCell>
        <mxCell id="xWLtcsl5UL_TNWLRgXfQ-102" value="" style="endArrow=classic;html=1;rounded=0;exitX=1;exitY=1;exitDx=0;exitDy=0;entryX=0.151;entryY=0.97;entryDx=0;entryDy=0;entryPerimeter=0;" edge="1" parent="1" source="xWLtcsl5UL_TNWLRgXfQ-89" target="xWLtcsl5UL_TNWLRgXfQ-54">
          <mxGeometry width="50" height="50" relative="1" as="geometry">
            <mxPoint x="400" y="400" as="sourcePoint" />
            <mxPoint x="450" y="350" as="targetPoint" />
          </mxGeometry>
        </mxCell>
        <mxCell id="xWLtcsl5UL_TNWLRgXfQ-103" value="" style="endArrow=classic;html=1;rounded=0;entryX=0.156;entryY=1.013;entryDx=0;entryDy=0;entryPerimeter=0;" edge="1" parent="1" source="xWLtcsl5UL_TNWLRgXfQ-90" target="xWLtcsl5UL_TNWLRgXfQ-40">
          <mxGeometry width="50" height="50" relative="1" as="geometry">
            <mxPoint x="400" y="400" as="sourcePoint" />
            <mxPoint x="450" y="350" as="targetPoint" />
          </mxGeometry>
        </mxCell>
      </root>
    </mxGraphModel>
  </diagram>
</mxfile>
